<?xml version="1.0" encoding="UTF-8" standalone="no"?>
<!-- Created with Inkscape (http://www.inkscape.org/) -->

<svg
   xmlns:dc="http://purl.org/dc/elements/1.1/"
   xmlns:cc="http://creativecommons.org/ns#"
   xmlns:rdf="http://www.w3.org/1999/02/22-rdf-syntax-ns#"
   xmlns:svg="http://www.w3.org/2000/svg"
   xmlns="http://www.w3.org/2000/svg"
   xmlns:sodipodi="http://sodipodi.sourceforge.net/DTD/sodipodi-0.dtd"
   xmlns:inkscape="http://www.inkscape.org/namespaces/inkscape"
   id="svg3106"
   version="1.1"
   inkscape:version="0.48.4 r9939"
   width="414"
   height="570"
   sodipodi:docname="logo03.png">
  <metadata
     id="metadata3112">
    <rdf:RDF>
      <cc:Work
         rdf:about="">
        <dc:format>image/svg+xml</dc:format>
        <dc:type
           rdf:resource="http://purl.org/dc/dcmitype/StillImage" />
        <dc:title></dc:title>
      </cc:Work>
    </rdf:RDF>
  </metadata>
  <defs
     id="defs3110" />
  <sodipodi:namedview
     pagecolor="#ffffff"
     bordercolor="#666666"
     borderopacity="1"
     objecttolerance="10"
     gridtolerance="10"
     guidetolerance="10"
     inkscape:pageopacity="0"
     inkscape:pageshadow="2"
     inkscape:window-width="1855"
     inkscape:window-height="1056"
     id="namedview3108"
     showgrid="false"
     inkscape:zoom="0.56382462"
     inkscape:cx="114.17658"
     inkscape:cy="264.2706"
     inkscape:window-x="65"
     inkscape:window-y="24"
     inkscape:window-maximized="1"
     inkscape:current-layer="svg3106" />
  <path
     style="fill:#000000"
     d="m 199,530.49961 c -5.225,-0.7638 -10.2875,-1.41367 -11.25,-1.44417 -2.8744,-0.0911 -1.98962,-1.56701 1.75,-2.91928 3.98791,-1.44205 4.56677,-3.64404 1.25,-4.75508 -3.12188,-1.04576 -25.07141,-0.74933 -44.52608,0.60132 -21.94253,1.52338 -46.315978,1.57388 -49.066832,0.10167 -2.560665,-1.37043 -2.722531,-2.80178 -0.584061,-5.16476 1.442571,-1.59403 1.401104,-1.79275 -0.5,-2.39613 -4.885269,-1.55053 -0.791611,-6.68866 7.137593,-8.95871 17.61474,-5.04292 47.50311,-5.85691 74.28607,-2.02312 9.76467,1.39774 17.9543,2.34099 18.19918,2.09611 0.24488,-0.24487 -1.82798,-9.60098 -4.60636,-20.79134 C 186.28341,465.48877 178,427.41242 178,424.67758 c 0,-0.70595 1.84979,-2.17946 4.11065,-3.27446 l 4.11065,-1.9909 -3.98662,-2.63822 c -4.63029,-3.06418 -4.81281,-3.70476 -6.22258,-21.83891 C 174.46673,375.05665 174.47221,375 177.94098,375 c 4.15718,0 4.44146,-1.25941 1.02346,-4.53407 C 176.04156,367.66563 176,367.4764 176,356.96653 c 0,-5.8626 0.29238,-14.77841 0.64974,-19.81291 L 177.29949,328 l 3.85025,0 c 2.11764,0 3.85026,-0.24293 3.85026,-0.53984 0,-0.29691 -0.9,-2.30398 -2,-4.46016 -2.63102,-5.15723 -2.59972,-13.25493 0.0996,-25.76745 C 185.43623,286.40131 186.18346,285 189.62244,285 c 2.82101,0 2.85312,-0.17968 0.75666,-4.23379 -2.35923,-4.56225 -1.25749,-12.38415 3.01012,-21.37052 l 3.5122,-7.39569 4.04929,0 c 4.62149,0 4.83286,-0.55764 2.01903,-5.32671 -1.77094,-3.00153 -1.89543,-4.04268 -0.97463,-8.15146 C 203.453,232.01641 209.99543,218 211.57406,218 c 0.71266,0 2.5014,0.45839 3.97498,1.01865 2.36651,0.89974 2.5932,0.81219 1.94209,-0.75 -3.04863,-7.31455 -3.05097,-6.99892 0.10019,-13.51336 2.14155,-4.42728 2.86206,-7.11836 2.4655,-9.20865 l -0.5603,-2.95336 -1.57005,2.45336 c -0.86353,1.34935 -2.36123,4.47836 -3.32823,6.95336 -0.96699,2.475 -2.57255,5.4 -3.5679,6.5 -2.54851,2.81647 -6.61399,11.2139 -7.99631,16.51675 -0.64276,2.46579 -1.60937,6.18433 -2.14802,8.26342 -1.22367,4.72324 -2.26624,4.12672 -4.4427,-2.54193 -0.94028,-2.88103 -1.93631,-5.63248 -2.2134,-6.11432 -0.59697,-1.03813 -4.51631,7.27552 -13.27365,28.15586 -6.90524,16.46437 -7.77099,17.33426 -11.44288,11.49762 -1.10736,-1.7602 -2.3021,-3.21769 -2.65497,-3.23888 -1.19843,-0.072 -1.78427,4.49113 -2.3739,18.4902 -0.32366,7.6842 -0.80917,15.42685 -1.07891,17.20589 l -0.49045,3.2346 -5.45758,-3.08006 c -3.72929,-2.10469 -5.46274,-2.65399 -5.47391,-1.73461 -0.009,0.74 0.9703,10.67868 2.17619,22.08594 1.20589,11.40726 1.94495,20.98805 1.64237,21.29063 -0.30259,0.30259 -2.17717,-0.4098 -4.16573,-1.58308 l -3.61557,-2.13324 -1.09796,2.8426 c -1.76396,4.56688 -4.73616,21.10981 -5.49646,30.59261 -0.38584,4.8125 -1.05695,8.75 -1.49133,8.75 -1.6933,0 -10.63985,-26.66617 -12.50116,-37.26105 -0.3634,-2.06857 -0.98084,-3.95887 -1.37207,-4.20067 -0.39124,-0.2418 -1.72477,1.64633 -2.96342,4.19583 -3.11893,6.4197 -4.06429,4.31815 -4.08321,-9.07703 -0.0153,-10.85802 2.31501,-25.67324 5.4245,-34.48649 C 125.89269,292.0527 125.88199,292 123.59315,292 c -1.27498,0 -4.06752,1.39245 -6.20565,3.09433 -4.80852,3.82744 -5.37733,2.55948 -2.90147,-6.46786 2.00332,-7.30438 7.75102,-17.40424 14.56225,-25.58876 2.72345,-3.27255 4.95172,-6.19481 4.95172,-6.4939 0,-0.98354 -8.08783,-0.56717 -10.12118,0.52104 -7.93832,4.24846 0.58105,-7.58901 19.03549,-26.44938 13.20244,-13.49285 14.15388,-15.20204 6.73463,-12.0983 -4.07135,1.70319 1.633,-6.07238 11.71391,-15.96718 5.57543,-5.47251 9.46215,-9.55542 8.63715,-9.07313 -0.825,0.48229 -8.09559,5.29729 -16.15686,10.70001 -8.06128,5.40272 -14.97486,9.82313 -15.3635,9.82313 -0.38865,0 -0.5085,-1.35 -0.26633,-3 0.24217,-1.65 0.10331,-3 -0.30858,-3 -1.31135,0 -7.83292,8.1991 -14.11836,17.75 -3.34807,5.0875 -6.23829,9.25 -6.4227,9.25 -0.18441,0 -1.52648,-1.8 -2.98237,-4 -1.45589,-2.2 -3.02724,-4 -3.49189,-4 -1.37438,0 -9.64568,17.95731 -11.515227,25 -2.55794,9.63589 -4.325272,11.04891 -8.543488,6.83069 l -2.169305,-2.1693 -3.342318,3.9193 c -1.838274,2.15562 -6.937087,9.04286 -11.330695,15.30497 L 66,287.27132 l 0,-5.952 c 0,-7.57957 1.499459,-16.12644 4.220342,-24.05582 1.176994,-3.43008 1.81674,-6.55975 1.421658,-6.95483 -0.395082,-0.39508 -2.051156,-0.21525 -3.680165,0.39963 C 66.332826,251.32319 65,251.6254 65,251.37989 c 0,-0.24551 1.176975,-2.79392 2.6155,-5.66313 3.900662,-7.78008 9.892255,-16.33985 17.154387,-24.50727 3.565332,-4.00978 6.162273,-7.60978 5.77098,-8 -0.391294,-0.39022 -2.921974,-0.64155 -5.623735,-0.55852 l -4.912292,0.15097 2.017885,-2.83385 c 5.217589,-7.32743 17.802366,-15.63993 27.292205,-18.02705 2.64822,-0.66614 4.44822,-1.53023 4,-1.92018 -0.44821,-0.38996 -3.46214,-1.75568 -6.69763,-3.03494 l -5.8827,-2.32592 6.72111,-3.38836 c 13.12956,-6.61909 37.03084,-12.55711 42.34138,-10.51926 3.42569,1.31456 0.32919,-2.38857 -3.55577,-4.25238 -2.29287,-1.1 -4.18515,-2.26809 -4.20508,-2.59575 -0.0597,-0.9817 14.91232,-3.96097 23.073,-4.59127 4.18509,-0.32324 14.22872,-0.032 22.31919,0.64714 8.09047,0.67916 14.92531,1.01947 15.18854,0.75624 0.99526,-0.99526 -14.45098,-5.70714 -22.24497,-6.78584 -5.84936,-0.80956 -10.04094,-0.82711 -14.95154,-0.0626 -3.75295,0.58428 -6.96986,0.91601 -7.1487,0.73718 -0.17883,-0.17884 1.34888,-1.95113 3.39491,-3.93843 2.04603,-1.98731 3.3937,-3.93963 2.99482,-4.33851 -0.39887,-0.39887 -7.47358,-0.91693 -15.72158,-1.15124 -13.6141,-0.38676 -23.20398,0.47486 -28.79118,2.58678 -0.9068,0.34276 0.50124,-1.77638 3.12897,-4.70921 2.62774,-2.93283 4.63692,-5.4732 4.46485,-5.64527 -0.70229,-0.70229 -15.01941,2.81636 -24.6335,6.05406 l -10.271744,3.45917 0.654397,-4.21122 c 0.359919,-2.31618 0.87685,-4.99873 1.148735,-5.96123 0.645088,-2.28367 0.410285,-2.24705 -6.912395,1.07802 -7.29806,3.3139 -21.660093,12.4174 -27.033975,17.13573 -2.068682,1.81633 -4.051645,3.01201 -4.406584,2.65707 -0.35494,-0.35494 0.335174,-3.01103 1.533585,-5.90241 C 59.019481,148.82703 60,146.0704 60,145.59258 60,143.74496 45.945773,146.29859 33.272571,150.44891 25.972657,152.83954 20,154.58234 20,154.3218 c 0,-0.26054 2.00175,-3.07514 4.448334,-6.25466 2.711768,-3.52414 8.762746,-9.0007 15.5,-14.02858 C 46.02675,129.50235 51,125.41383 51,124.95295 c 0,-0.46087 -1.903437,-0.97633 -4.22986,-1.14545 L 42.540279,123.5 48.52014,120.34538 c 8.176003,-4.31318 15.359271,-6.26643 25.448239,-6.9198 4.692392,-0.30389 9.544121,-0.75753 10.781621,-1.0081 4.0605,-0.82217 2.363544,-3.14419 -4.397918,-6.01785 l -6.647917,-2.8254 3.397917,-0.90021 c 6.078322,-1.61034 21.546522,-0.0631 33.200158,3.321 5.94123,1.72525 11.1957,2.99466 11.6766,2.8209 0.4809,-0.17376 -0.87652,-3.21951 -3.01649,-6.76834 -2.13996,-3.548828 -3.72093,-6.622336 -3.51325,-6.830017 0.5584,-0.558398 11.19318,2.296707 17.86625,4.796527 5.3973,2.0219 11.04079,5.45951 22.9195,13.9609 2.60416,1.86376 5.03163,3.09186 5.39437,2.72912 0.36274,-0.36273 -0.1281,-2.72189 -1.09076,-5.24257 -0.96265,-2.52068 -1.48052,-4.85281 -1.15082,-5.18252 1.10929,-1.10928 9.06791,1.84432 14.61236,5.42294 3.025,1.95246 13.07312,11.25575 22.32916,20.67398 16.80095,17.09537 18.68876,18.17807 12.91746,7.40845 -3.25829,-6.08016 -9.24788,-13.10241 -16.46277,-19.30108 -3.15571,-2.71123 -5.41055,-5.2507 -5.01075,-5.64328 0.39979,-0.39257 2.61016,-0.85468 4.91192,-1.0269 l 4.18502,-0.31313 -8.18502,-6.71812 C 184.18326,103.08691 177.13626,96.674412 173.02503,92.531879 L 165.55006,85 l 4.66595,0 c 2.56628,0 4.93298,-0.432061 5.25935,-0.960137 1.1495,-1.859932 -14.75477,-9.53594 -23.86914,-11.520159 l -2.89379,-0.629983 2.39379,-1.598222 C 154.52316,68.010157 159,63.768791 159,62.812909 c 0,-0.4471 -1.6875,-0.81778 -3.75,-0.823733 -2.0625,-0.006 -6,-0.691893 -8.75,-1.52431 -6.1571,-1.863735 -20.5,-8.514594 -20.5,-9.505929 0,-0.399121 0.9,-0.96103 2,-1.248686 7.71384,-2.017214 -8.00855,-12.540307 -31.051541,-20.782996 -4.945813,-1.769163 -8.799415,-3.409632 -8.56356,-3.645488 1.307189,-1.307188 22.692371,-0.100912 30.317881,1.710144 C 123.35311,28.09636 128.30626,29 129.7098,29 c 2.35796,0 2.50872,-0.265977 1.98391,-3.5 -0.31238,-1.925 -0.29613,-3.5 0.0361,-3.5 2.72525,0 18.47948,10.336491 28.75185,18.864348 7.62515,6.330205 10.02732,5.045293 7.1297,-3.813663 C 166.72512,34.341121 166,31.841401 166,31.495752 c 0,-1.193002 12.27497,9.017729 16.53218,13.752014 2.34813,2.611272 6.00149,8.121842 8.11857,12.245711 2.11709,4.12387 4.16704,7.499875 4.55544,7.502234 0.38841,0.0024 0.83841,-3.258211 1,-7.245711 L 196.5,50.5 l 5.14346,10 c 2.82891,5.5 7.06476,15.2875 9.41301,21.75 2.34824,6.4625 4.64618,11.75 5.10653,11.75 0.46035,0 0.837,-2.025 0.837,-4.5 0,-2.475 0.3375,-4.496925 0.75,-4.493167 1.06536,0.0097 4.845,5.778081 6.87549,10.493167 1.3866,3.219877 1.77943,7.70558 2.0142,23 0.28737,18.72126 1.61021,32.1499 3.33717,33.87686 1.17105,1.17105 5.9907,-5.77231 14.09797,-20.31004 7.39421,-13.25909 13.78496,-21.87247 20.12753,-27.12766 6.7199,-5.567831 6.99688,-5.641398 6.78262,-1.80151 -0.10319,1.84929 -0.14202,3.99868 -0.0863,4.77641 0.0563,0.78563 3.10114,-1.45771 6.85132,-5.04782 6.38299,-6.110543 14.7997,-12.157523 25.5,-18.320473 2.6125,-1.504696 4.75,-2.523007 4.75,-2.262913 0,0.260094 -0.69949,2.147016 -1.55442,4.19316 -2.63357,6.303021 -1.46273,6.771517 4.88714,1.955525 6.10307,-4.628813 12.18368,-6.829587 21.89379,-7.924097 l 5.7265,-0.645484 -1.47034,2.819021 c -0.80869,1.550462 -1.47312,3.626912 -1.47651,4.614334 -0.005,1.549787 0.50669,1.686547 3.74384,1 6.90675,-1.464808 32.82826,-0.786713 33.86194,0.885813 C 373.89029,89.631507 373.71371,90 373.21953,90 c -1.15514,0 -3.27697,4.609223 -2.48597,5.40023 0.32988,0.329874 2.53509,0.59977 4.90047,0.59977 3.22714,0 6.8451,1.310526 14.49361,5.25 5.96069,3.07014 9.39974,5.34032 8.28263,5.46752 -1.05065,0.11964 -9.07315,0.68252 -17.82779,1.25085 -8.75463,0.56834 -16.09831,1.21413 -16.31929,1.4351 -0.22097,0.22098 0.17488,1.32513 0.87967,2.45367 0.70479,1.12855 1.07346,2.24548 0.81929,2.48208 -0.25418,0.2366 -4.06215,-0.13381 -8.46215,-0.82314 -4.4,-0.68933 -11.97446,-1.54291 -16.83214,-1.89685 l -8.83213,-0.64353 2.18067,2.76215 2.18067,2.76215 -14.34854,0.824 c -7.89169,0.45321 -14.98535,1.0301 -15.76369,1.282 -1.02759,0.33256 -0.49459,1.40777 1.94617,3.92599 2.52163,2.60167 2.93836,3.46801 1.66818,3.46801 -0.93123,0 -9.38185,2.52581 -18.77915,5.61291 l -17.08601,5.61291 3.75488,2.26616 3.75487,2.26616 -5.87918,1.70913 c -6.49282,1.88751 -12.52414,4.7481 -22.73264,10.78184 -8.50674,5.02792 -9.38763,6.33947 -2.54745,3.79287 15.3816,-5.72655 35.37116,-7.96244 51.10017,-5.71569 l 5.78468,0.82629 -3.20759,2.17371 c -5.50351,3.72961 -4.73037,4.33619 6.35336,4.9846 9.17876,0.53697 21.6158,2.94063 34.78487,6.72274 l 4.5,1.29238 -4,0.87515 c -3.73521,0.81722 -8.38709,3.38228 -7.427,4.09528 0.23485,0.17441 4.70168,1.56977 9.92628,3.1008 10.60628,3.10809 19.82554,7.84925 24.9011,12.8058 l 3.37611,3.29696 -4.88824,0.87983 c -2.68854,0.48391 -5.03408,1.00474 -5.21232,1.15741 -0.17824,0.15266 2.56048,3.16213 6.08604,6.6877 5.17572,5.17571 13.7411,15.41885 23.15354,27.68878 0.89646,1.16861 0.73773,1.23594 -0.91551,0.38833 -1.1,-0.56396 -3.24762,-1.32375 -4.77249,-1.68841 l -2.77248,-0.66303 2.95265,5.27469 c 2.77219,4.95233 7.20978,18.77856 8.63167,26.89376 l 0.6341,3.61905 -7.33672,-7.1223 C 385.76556,249.72208 371.48808,239 369.71118,239 c -0.26286,0 -0.71327,0.9 -1.00093,2 -0.82435,3.15234 -2.00029,2.40577 -5.5448,-3.52027 -1.816,-3.03615 -6.74503,-10.12365 -10.95339,-15.75 L 344.5605,211.5 l -0.92233,4.25 c -0.50728,2.3375 -1.21984,4.25 -1.58345,4.25 -0.36361,0 -5.99712,-5.40255 -12.51891,-12.00567 -6.52179,-6.60312 -12.08925,-11.77422 -12.37214,-11.49133 -0.28289,0.28288 -0.54794,2.08411 -0.58901,4.00273 -0.0411,1.91861 -0.3181,3.48971 -0.61565,3.49133 -0.29754,0.002 -9.00938,-4.49706 -19.35964,-9.99706 -10.35025,-5.5 -19.00189,-10 -19.22585,-10 -0.22397,0 0.67652,2.13863 2.00107,4.75252 1.37612,2.71564 4.27631,6.14076 6.76685,7.99164 2.39721,1.78152 7.73356,6.38804 11.85856,10.23671 l 7.5,6.99758 -4.75,-0.62515 c -2.80611,-0.36931 -4.75,-0.23174 -4.75,0.33617 0,0.52872 2.95806,3.36132 6.57347,6.29467 3.61541,2.93334 12.78962,12.40185 20.38712,21.04112 12.08893,13.74655 13.29711,15.42438 9.67653,13.43804 C 328.55729,252.225 320,250.20454 320,251.47955 c 0,0.36044 2.02833,3.14534 4.50741,6.18866 6.65395,8.16843 13.71532,21.54617 16.94651,32.10513 l 0.69567,2.27334 -4.55285,-2.21194 c -2.50408,-1.21658 -4.73999,-2.01458 -4.96871,-1.77335 -0.22872,0.24124 0.17339,3.27209 0.89358,6.73524 0.72019,3.46315 1.79932,12.91315 2.39807,21 0.59874,8.08685 1.34155,17.40337 1.65068,20.70337 l 0.56205,6 -4.37805,-4.27355 -4.37805,-4.27355 -2.72246,9.77355 c -2.78952,10.01428 -9.58162,28.67912 -10.20825,28.05248 -0.19218,-0.19217 -1.49621,-8.20855 -2.89785,-17.81417 -3.65333,-25.03673 -3.08766,-23.27366 -7.21855,-22.4987 -1.90918,0.35817 -4.11427,0.89797 -4.90021,1.19956 -1.98582,0.76203 -1.82805,-3.31618 0.99288,-25.66562 1.28428,-10.175 2.23865,-18.6136 2.12082,-18.75244 -0.11783,-0.13884 -2.65064,1.09051 -5.62846,2.73189 -2.97783,1.64137 -5.97673,2.99247 -6.66423,3.00243 -0.8683,0.0126 -1.25086,-1.89036 -1.25282,-6.23188 -0.003,-5.88218 -1.33111,-19.95507 -2.61956,-27.75 l -0.57852,-3.5 -3.33332,3.83999 -3.33331,3.83999 -2.19056,-4.33999 c -4.67763,-9.26742 -19.1541,-34.8531 -20.02433,-35.39093 -0.50467,-0.3119 -0.91758,-0.11983 -0.91758,0.42682 0,0.54666 -0.48841,2.26072 -1.08536,3.80902 l -1.08536,2.8151 -2.85297,-6.25 c -1.56913,-3.4375 -3.21822,-6.23267 -3.66464,-6.21148 -0.44642,0.0212 -1.72057,1.48369 -2.83144,3.25 -3.67678,5.84614 -14.49891,6.85695 -17.74601,1.65751 C 228.0658,222.87571 227.18169,222 226.76955,222 c -0.90305,0 -7.35113,13.58756 -13.28763,28 -8.29914,20.1484 -15.59263,48.68416 -18.65817,73 -1.71758,13.62386 -1.73588,56.15483 -0.0301,70 4.66332,37.85086 15.31351,75.49059 30.77089,108.75 l 4.29896,9.25 16.81826,-0.0436 c 9.25004,-0.024 21.54326,-0.47565 27.31826,-1.00372 21.53466,-1.96914 32.59743,-2.24164 41.01833,-1.01034 8.96349,1.31064 24.99341,6.58736 30.26145,9.96146 l 3.22022,2.0625 -35,0.0327 c -49.76998,0.0465 -63.72609,1.38493 -76.32051,7.31952 -6.08516,2.86738 -7.65825,3.16622 -17.67949,3.35863 -6.05,0.11616 -15.275,-0.41372 -20.5,-1.17752 z"
     id="path3116"
     inkscape:connector-curvature="0" />
</svg>
